<?xml version="1.0" encoding="UTF-8"?>
<svg width="800" height="600" xmlns="http://www.w3.org/2000/svg">
  <rect width="800" height="600" fill="#f8f9fa" stroke="#dee2e6" stroke-width="2"/>
  <rect x="20" y="20" width="760" height="80" fill="#0066cc" rx="5"/>
  <text x="400" y="70" text-anchor="middle" font-family="Arial, sans-serif" font-size="24" fill="white">BigLedger Applet Store</text>
  
  <!-- Applet Grid -->
  <rect x="50" y="120" width="200" height="150" fill="white" stroke="#dee2e6" rx="8"/>
  <rect x="60" y="130" width="60" height="60" fill="#e9ecef" rx="4"/>
  <text x="90" y="165" text-anchor="middle" font-size="32">📱</text>
  <text x="150" y="210" text-anchor="middle" font-family="Arial, sans-serif" font-size="14">Sample Applet</text>
  <text x="150" y="230" text-anchor="middle" font-family="Arial, sans-serif" font-size="12" fill="#6c757d">Business</text>
  <rect x="130" y="245" width="40" height="20" fill="#28a745" rx="10"/>
  <text x="150" y="258" text-anchor="middle" font-family="Arial, sans-serif" font-size="10" fill="white">FREE</text>
  
  <rect x="270" y="120" width="200" height="150" fill="white" stroke="#dee2e6" rx="8"/>
  <rect x="280" y="130" width="60" height="60" fill="#e9ecef" rx="4"/>
  <text x="310" y="165" text-anchor="middle" font-size="32">🛒</text>
  <text x="370" y="210" text-anchor="middle" font-family="Arial, sans-serif" font-size="14">POS Applet</text>
  <text x="370" y="230" text-anchor="middle" font-family="Arial, sans-serif" font-size="12" fill="#6c757d">Retail</text>
  <rect x="350" y="245" width="40" height="20" fill="#dc3545" rx="10"/>
  <text x="370" y="258" text-anchor="middle" font-family="Arial, sans-serif" font-size="10" fill="white">PAID</text>
  
  <rect x="490" y="120" width="200" height="150" fill="white" stroke="#dee2e6" rx="8"/>
  <rect x="500" y="130" width="60" height="60" fill="#e9ecef" rx="4"/>
  <text x="530" y="165" text-anchor="middle" font-size="32">📊</text>
  <text x="590" y="210" text-anchor="middle" font-family="Arial, sans-serif" font-size="14">Analytics</text>
  <text x="590" y="230" text-anchor="middle" font-family="Arial, sans-serif" font-size="12" fill="#6c757d">Reporting</text>
  <rect x="570" y="245" width="40" height="20" fill="#28a745" rx="10"/>
  <text x="590" y="258" text-anchor="middle" font-family="Arial, sans-serif" font-size="10" fill="white">FREE</text>
  
  <!-- Navigation -->
  <rect x="50" y="300" width="100" height="40" fill="#0066cc" rx="5"/>
  <text x="100" y="325" text-anchor="middle" font-family="Arial, sans-serif" font-size="14" fill="white">Public</text>
  <rect x="160" y="300" width="100" height="40" fill="#6c757d" rx="5"/>
  <text x="210" y="325" text-anchor="middle" font-family="Arial, sans-serif" font-size="14" fill="white">Private</text>
  <rect x="270" y="300" width="100" height="40" fill="#6c757d" rx="5"/>
  <text x="320" y="325" text-anchor="middle" font-family="Arial, sans-serif" font-size="14" fill="white">My Applets</text>
  
  <text x="400" y="520" text-anchor="middle" font-family="Arial, sans-serif" font-size="16" fill="#6c757d">Placeholder: Applet Store Interface</text>
  <text x="400" y="540" text-anchor="middle" font-family="Arial, sans-serif" font-size="12" fill="#868e96">This image shows the Applet Store layout with available applets</text>
</svg>